<?xml version="1.0" standalone="no"?>
<!DOCTYPE svg PUBLIC "-//W3C//DTD SVG 20010904//EN"
 "http://www.w3.org/TR/2001/REC-SVG-20010904/DTD/svg10.dtd">
<svg version="1.0" xmlns="http://www.w3.org/2000/svg"
 width="512" height="512" viewBox="116.360000 14.600000 122.940000 127.400000"
 preserveAspectRatio="xMidYMid meet">

<g transform="translate(103.300000,160.000000) scale(0.100000,-0.100000)"
fill="#fff" stroke="none">
<path d="M633 1409 c-125 -21 -242 -87 -340 -192 -274 -294 -190 -783 166
-971 94 -49 167 -66 286 -66 178 0 308 53 431 175 118 118 184 277 184 445 0
107 -18 181 -72 289 -113 233 -384 365 -655 320z m207 -59 c39 -6 99 -27 150
-52 275 -133 387 -461 256 -743 -13 -27 -30 -59 -39 -69 -14 -19 -15 -19 -39
9 -24 28 -29 29 -124 31 -75 2 -105 -1 -122 -12 -28 -18 -52 -71 -52 -113 0
-29 0 -29 73 -35 39 -4 90 -7 112 -9 l40 -2 -52 -33 c-158 -101 -365 -114
-533 -33 -48 23 -110 63 -110 71 0 3 49 4 110 2 l110 -3 0 50 c0 42 -5 56 -29
83 -28 31 -30 32 -126 35 l-98 2 -33 -33 -34 -34 -20 28 c-33 46 -68 132 -79
195 -47 255 74 503 300 614 115 56 211 71 339 51z"/>
<path d="M673 1210 c-82 -49 -85 -177 -7 -239 20 -15 41 -21 80 -21 48 0 59 4
91 33 31 29 37 41 41 89 7 94 -46 158 -133 158 -22 0 -54 -9 -72 -20z"/>
<path d="M595 906 c-33 -14 -95 -79 -95 -99 0 -7 19 -27 41 -46 l41 -34 38 22
c21 11 52 21 69 21 l31 0 0 -69 0 -69 -59 -44 c-56 -41 -58 -44 -44 -65 l15
-23 58 41 58 40 50 -35 c56 -41 67 -43 81 -18 8 16 1 25 -50 61 l-59 42 0 69
0 70 31 0 c16 0 47 -10 69 -22 l38 -23 24 25 c14 14 33 30 44 36 18 11 18 13
2 40 -9 16 -32 42 -52 58 -40 33 -72 36 -145 17 -37 -10 -53 -9 -92 4 -57 18
-56 18 -94 1z"/>
<path d="M402 735 c-36 -31 -46 -66 -32 -111 22 -65 99 -83 151 -36 45 41 45
103 0 144 -39 35 -80 36 -119 3z"/>
<path d="M972 735 c-16 -14 -32 -37 -35 -52 -11 -56 38 -123 90 -123 102 0
141 139 52 186 -41 21 -74 17 -107 -11z"/>
</g>
</svg>
